<svg width="240" height="189" viewBox="0 0 240 189" fill="none" xmlns="http://www.w3.org/2000/svg">
<path d="M100.8 0C104.572 2.0778 104.608 8.18734 100.108 9.09837C95.376 10.0574 92.472 8.13939 87.324 11.1122C85.064 12.4189 81.2 17.1698 81.2 19.7791V47.9493H95.4C104.296 47.9493 114.4 59.9086 114.4 68.5275V98.6956C117.964 98.0522 122.044 98.0522 125.6 98.6956V67.3288C125.6 59.6009 136.392 47.9493 144.2 47.9493H158.8V20.5782C158.8 16.4106 154.048 11.2201 150.22 9.96945C146.392 8.71877 143.224 9.77366 139.892 9.09837C135.468 8.20332 135.3 1.94195 139.2 0H150C156.704 1.72218 162.696 5.66201 165.82 11.9673C166.32 12.9783 168 17.3456 168 18.1808V47.3499L168.6 47.9493H203.4C212.704 47.9493 221.376 59.8247 222.016 68.5115C222.724 78.1213 221.456 88.5942 222 98.296H227.8C228.6 98.296 231.912 99.2949 232.8 99.6945C236.372 101.313 238.808 105.081 240 108.685V162.628C239.604 163.483 237.404 165.825 236.6 165.825H204.4V184.804C204.4 186.383 202.556 188.313 201.2 189H141.6C140.328 188.489 138.4 186.091 138.4 184.804V165.825H101.2V186.003C101.2 186.706 99.012 188.469 98.4 189H38.4C37.492 188.129 35.6 186.571 35.6 185.204V165.825H3.4C2.64 165.825 0.476 163.795 0 163.027V108.285C2.628 100.086 9.916 97.6247 18.004 98.3C18.596 88.3745 17.208 77.538 17.988 67.7163C18.652 59.3252 27.784 47.9533 36.604 47.9533H71.604V20.9778C71.604 13.0981 78.312 4.12763 85.612 1.40651L90.004 0H100.804L100.8 0ZM34.4 110.483C34.936 115.562 34 121.495 34.4 126.666C35.988 125.923 37.628 125.579 39.384 125.451C58.356 124.037 79.06 126.554 98.216 125.451L102.8 126.662C103.236 121.252 102.224 114.986 102.8 109.68C103.052 107.354 104.6 105.536 104.824 103.311C103.848 92.2104 106.08 79.0204 104.76 68.1719C104.008 61.9864 98.28 57.3833 92.22 57.1236C75.336 58.2863 56.46 55.6171 39.812 57.1435C32.864 57.7829 27.992 62.354 27.212 69.3306L27.204 99.2949C27.38 100.23 29.684 101.321 30.62 102.276C32.544 104.234 34.12 107.766 34.408 110.479L34.4 110.483ZM205.6 126.666V109.684C205.6 109.312 206.38 106.847 206.604 106.292C207.708 103.542 209.932 101.505 212.408 100.014L212.364 67.3647C210.912 61.419 206.236 57.6989 200.192 57.1475C183.54 55.6251 164.672 58.2863 147.784 57.1275C141.936 57.3873 136.024 61.7586 135.232 67.7643C133.812 78.5768 136.24 92.1984 135.176 103.315C135.624 105.86 136.94 107.814 137.192 110.491C137.676 115.642 136.844 121.447 137.204 126.666L141.784 125.451C160.94 126.554 181.644 124.037 200.616 125.451C202.372 125.583 204.008 125.923 205.6 126.666ZM9.2 110.483V156.235H24.8V110.483C24.8 108.829 22.436 107.994 21.02 107.866C19.192 107.702 13.488 107.614 11.884 107.97C10.988 108.17 9.38 109.644 9.2 110.483ZM127.6 156.235V110.084C127.6 109.392 125.74 108.046 124.98 107.906C123.324 107.606 117.188 107.67 115.392 107.878C113.596 108.086 112.776 109.041 112.26 110.775C112.316 125.887 112.84 141.187 112 156.235H127.6ZM230.8 156.235V111.282C230.8 109.736 229.048 108.066 227.408 107.878C225.248 107.626 217.776 107.57 216.256 108.745C215.948 108.985 215.2 109.808 215.2 110.088V156.239H230.8V156.235ZM102.8 156.235V140.052C102.8 139.492 101.288 136.999 100.76 136.496C99.58 135.369 97.824 134.785 96.216 134.642C78.536 133.063 58.524 135.856 40.6 134.658C38.676 134.462 34.4 137.51 34.4 139.253V156.235H102.8ZM205.6 156.235V139.652C205.6 139.404 204.744 137.922 204.496 137.558C203.08 135.445 201.06 134.825 198.616 134.642C180.824 133.303 161.368 135.676 143.396 134.658C142.144 134.797 140.356 135.449 139.392 136.252C138.9 136.663 137.196 139.309 137.196 139.652V156.235H205.596H205.6ZM92 165.825H45.2V179.81H92V165.825ZM194.8 165.825H148V179.81H194.8V165.825Z" fill="white" fill-opacity="0.5"/>
<path d="M121.6 0C126.536 2.15372 125.016 9.39406 119.796 9.22624C114.664 9.05841 113.66 2.40545 118 0H121.6Z" fill="white" fill-opacity="0.5"/>
</svg>
