<svg width="307" height="387" viewBox="0 0 307 387" fill="none" xmlns="http://www.w3.org/2000/svg">
<path d="M18.043 45.642C18.5718 47.8012 17.7197 50.0754 15.1194 49.2863C13.6699 48.8451 12.5656 47.1518 12.0231 45.8092C8.4528 36.9478 20.9749 32.0623 25.063 40.0057C27.4825 44.7131 26.0001 48.2752 21.1968 50.1741C19.6624 50.7824 19.0102 50.9522 18.8349 48.9904C18.739 47.9217 19.2596 46.0969 18.043 45.642Z" fill="white" fill-opacity="0.2"/>
<path d="M29.4578 47.7821C35.2585 47.2614 39.3713 51.725 37.5739 57.4709C35.7654 63.2524 27.0329 64.0142 24.1695 58.7752C21.687 54.2294 28.4632 55.8817 30.7456 55.1117C30.8744 53.8732 29.266 53.8677 28.37 53.9225C26.8767 54.0129 23.0817 55.3693 23.4954 52.5991C23.9229 49.7385 26.7588 48.0232 29.4605 47.7821H29.4578Z" fill="white" fill-opacity="0.2"/>
<path d="M6.07421 54.9718C8.10186 55.8897 11.4803 53.873 13.2422 55.1033C15.9713 57.0077 12.8093 60.1313 10.9296 61.2054C3.16427 65.6416 -4.27773 55.3499 2.91493 49.2533C7.43602 45.4227 11.705 48.0559 14.3437 52.4126C11.927 54.1991 8.28818 52.8236 6.07421 54.9718Z" fill="white" fill-opacity="0.2"/>
<path d="M17.3494 58.8108C17.67 58.8217 17.7275 59.2218 17.8152 59.4711C18.4071 61.1316 18.0043 63.3976 19.9497 64.3019C20.1415 64.1786 20.1305 64.0498 20.1525 63.8525C20.2676 62.8058 19.3907 59.578 21.032 59.3314C21.9582 59.1917 25.1065 61.4001 25.7257 62.2139C28.3041 65.6034 25.3997 71.5877 21.38 72.3083C19.7278 72.6042 17.3604 72.3878 15.8095 71.7302C10.5897 69.5135 9.80875 61.4412 15.4752 59.3067C15.8533 59.1643 17.0124 58.7998 17.3494 58.8108Z" fill="white" fill-opacity="0.2"/>
<path d="M277.043 359.642C277.572 361.801 276.72 364.075 274.12 363.286C272.67 362.845 271.566 361.152 271.023 359.809C267.453 350.948 279.975 346.062 284.063 354.006C286.483 358.713 285 362.275 280.197 364.174C278.663 364.782 278.01 364.952 277.835 362.99C277.739 361.922 278.26 360.097 277.043 359.642Z" fill="white" fill-opacity="0.2"/>
<path d="M288.458 361.782C294.258 361.261 298.371 365.725 296.574 371.471C294.765 377.252 286.033 378.014 283.169 372.775C280.687 368.229 287.463 369.882 289.745 369.112C289.874 367.873 288.266 367.868 287.37 367.923C285.876 368.013 282.081 369.369 282.495 366.599C282.923 363.738 285.759 362.023 288.46 361.782H288.458Z" fill="white" fill-opacity="0.2"/>
<path d="M265.074 368.972C267.102 369.89 270.48 367.873 272.242 369.103C274.971 371.008 271.809 374.131 269.93 375.205C262.164 379.642 254.722 369.35 261.915 363.253C266.436 359.423 270.705 362.056 273.344 366.413C270.927 368.199 267.288 366.824 265.074 368.972Z" fill="white" fill-opacity="0.2"/>
<path d="M276.349 372.811C276.67 372.822 276.728 373.222 276.815 373.471C277.407 375.132 277.004 377.398 278.95 378.302C279.142 378.179 279.131 378.05 279.152 377.852C279.268 376.806 278.391 373.578 280.032 373.331C280.958 373.192 284.106 375.4 284.726 376.214C287.304 379.603 284.4 385.588 280.38 386.308C278.728 386.604 276.36 386.388 274.809 385.73C269.59 383.513 268.809 375.441 274.475 373.307C274.853 373.164 276.012 372.8 276.349 372.811Z" fill="white" fill-opacity="0.2"/>
<path d="M287.043 9.64201C287.572 11.8012 286.72 14.0754 284.12 13.2863C282.67 12.8451 281.566 11.1518 281.023 9.80916C277.453 0.947808 289.975 -3.93772 294.063 4.00571C296.483 8.71313 295 12.2752 290.197 14.1741C288.663 14.7824 288.01 14.9522 287.835 12.9904C287.739 11.9217 288.26 10.0969 287.043 9.64201Z" fill="white" fill-opacity="0.2"/>
<path d="M298.458 11.7821C304.258 11.2614 308.371 15.725 306.574 21.4709C304.765 27.2524 296.033 28.0142 293.169 22.7752C290.687 18.2294 297.463 19.8817 299.745 19.1117C299.874 17.8732 298.266 17.8677 297.37 17.9225C295.876 18.0129 292.081 19.3693 292.495 16.5991C292.923 13.7385 295.759 12.0232 298.46 11.7821H298.458Z" fill="white" fill-opacity="0.2"/>
<path d="M275.074 18.9718C277.102 19.8897 280.48 17.873 282.242 19.1033C284.971 21.0077 281.809 24.1313 279.93 25.2054C272.164 29.6416 264.722 19.3499 271.915 13.2533C276.436 9.42269 280.705 12.0559 283.344 16.4126C280.927 18.1991 277.288 16.8236 275.074 18.9718Z" fill="white" fill-opacity="0.2"/>
<path d="M286.349 22.8108C286.67 22.8217 286.728 23.2218 286.815 23.4711C287.407 25.1316 287.004 27.3976 288.95 28.3019C289.142 28.1786 289.131 28.0498 289.152 27.8525C289.268 26.8058 288.391 23.578 290.032 23.3314C290.958 23.1917 294.106 25.4001 294.726 26.2139C297.304 29.6034 294.4 35.5877 290.38 36.3083C288.728 36.6042 286.36 36.3878 284.809 35.7302C279.59 33.5135 278.809 25.4412 284.475 23.3067C284.853 23.1643 286.012 22.7998 286.349 22.8108Z" fill="white" fill-opacity="0.2"/>
</svg>
