<svg width="594" height="569" viewBox="0 0 594 569" fill="none" xmlns="http://www.w3.org/2000/svg">
<path d="M281.75 150.564C290.008 184.281 276.702 219.794 236.096 207.471C213.462 200.583 196.219 174.14 187.747 153.174C131.995 14.8005 327.533 -61.4892 391.371 62.551C429.153 136.06 406.005 191.683 330.999 221.335C307.038 230.833 296.854 233.486 294.116 202.85C292.618 186.163 300.748 157.667 281.75 150.564Z" fill="white" fill-opacity="0.2"/>
<path d="M459.996 183.981C550.577 175.851 614.8 245.552 586.732 335.277C558.492 425.558 422.129 437.452 377.417 355.643C338.651 284.659 444.464 310.46 480.106 298.437C482.117 279.097 457.001 279.011 443.01 279.867C419.69 281.279 360.43 302.459 366.891 259.201C373.566 214.531 417.851 187.746 460.039 183.981H459.996Z" fill="white" fill-opacity="0.2"/>
<path d="M94.8516 296.255C126.514 310.588 179.271 279.097 206.783 298.309C249.399 328.046 200.023 376.823 170.671 393.596C49.4116 462.868 -66.7986 302.159 45.5179 206.958C116.117 147.141 182.779 188.26 223.984 256.291C186.245 284.189 129.424 262.709 94.8516 296.255Z" fill="white" fill-opacity="0.2"/>
<path d="M270.92 356.201C275.926 356.372 276.825 362.619 278.194 366.512C287.436 392.441 281.146 427.826 311.525 441.946C314.52 440.021 314.349 438.01 314.691 434.929C316.488 418.584 302.796 368.181 328.426 364.33C342.888 362.148 392.051 396.635 401.721 409.342C441.983 462.27 396.629 555.717 333.86 566.971C308.059 571.592 271.091 568.211 246.874 557.942C165.364 523.328 153.169 397.276 241.653 363.945C247.558 361.72 265.657 356.029 270.92 356.201Z" fill="white" fill-opacity="0.2"/>
</svg>
