<svg width="1014" height="916" viewBox="0 0 1014 916" fill="none" xmlns="http://www.w3.org/2000/svg">
<path d="M893.692 397.033C927.57 399.598 957.915 375.193 983.411 405.492C1042.72 475.866 1003.78 644.695 959.578 717.426C870.205 864.415 637.974 807.492 517.978 916C511.466 861.989 539.04 815.396 572.78 776.222C651.691 684.562 699.98 648.3 746.676 527.728C762.542 486.821 785.335 419.567 764.204 378.729C723.536 300.242 664.231 439.673 648.158 472.399C563.565 644.972 497.332 890.138 263.576 899.29C121.826 904.837 -24.3575 763.118 3.42443 619.111C21.9919 522.875 128.27 507.552 185.358 581.739C223.393 631.175 187.02 652.183 168.176 694.13C117.808 806.174 286.994 839.039 351.633 757.848C401.377 695.378 399.507 532.928 408.236 451.946C416.966 370.963 430.268 170.934 513.336 134.672C600.631 96.5382 582.756 258.226 591.209 305.512C592.04 310.157 588.022 315.288 596.058 313.832C627.027 285.543 625.434 240.615 638.528 203.313C674.623 100.213 755.614 11.3265 869.235 1.689C950.78 -5.24443 981.956 6.19576 976.829 92.7249C971.01 191.734 932.351 306.482 893.692 397.102V397.033Z" fill="#02316C" fill-opacity="0.2"/>
</svg>
