<svg width="307" height="387" viewBox="0 0 307 387" fill="none" xmlns="http://www.w3.org/2000/svg">
<path d="M18.043 45.642C18.5718 47.8012 17.7197 50.0754 15.1194 49.2863C13.6699 48.8451 12.5656 47.1518 12.0231 45.8092C8.4528 36.9478 20.9749 32.0623 25.063 40.0057C27.4825 44.7131 26.0001 48.2752 21.1968 50.1741C19.6624 50.7824 19.0102 50.9522 18.8349 48.9904C18.739 47.9217 19.2596 46.0969 18.043 45.642Z" fill="white" fill-opacity="0.2"/>
<path d="M29.4578 47.7821C35.2585 47.2614 39.3713 51.725 37.5739 57.4709C35.7654 63.2524 27.0329 64.0142 24.1695 58.7752C21.687 54.2294 28.4632 55.8817 30.7456 55.1117C30.8744 53.8732 29.266 53.8677 28.37 53.9225C26.8767 54.0129 23.0817 55.3693 23.4954 52.5991C23.9229 49.7385 26.7588 48.0232 29.4605 47.7821H29.4578Z" fill="white" fill-opacity="0.2"/>
<path d="M6.07421 54.9718C8.10186 55.8897 11.4803 53.873 13.2422 55.1033C15.9713 57.0077 12.8093 60.1313 10.9296 61.2054C3.16427 65.6416 -4.27773 55.3499 2.91493 49.2533C7.43602 45.4227 11.705 48.0559 14.3437 52.4126C11.927 54.1991 8.28818 52.8236 6.07421 54.9718Z" fill="white" fill-opacity="0.2"/>
<path d="M17.3494 58.8108C17.67 58.8217 17.7275 59.2218 17.8152 59.4711C18.4071 61.1316 18.0043 63.3976 19.9497 64.3019C20.1415 64.1786 20.1305 64.0498 20.1525 63.8525C20.2676 62.8058 19.3907 59.578 21.032 59.3314C21.9582 59.1917 25.1065 61.4001 25.7257 62.2139C28.3041 65.6034 25.3997 71.5877 21.38 72.3083C19.7278 72.6042 17.3604 72.3878 15.8095 71.7302C10.5897 69.5135 9.80875 61.4412 15.4752 59.3067C15.8533 59.1643 17.0124 58.7998 17.3494 58.8108Z" fill="white" fill-opacity="0.2"/>
<path d="M277.043 359.642C277.572 361.801 276.72 364.075 274.12 363.286C272.67 362.845 271.566 361.152 271.023 359.809C267.453 350.948 279.975 346.062 284.063 354.006C286.483 358.713 285 362.275 280.197 364.174C278.663 364.782 278.01 364.952 277.835 362.99C277.739 361.922 278.26 360.097 277.043 359.642Z" fill="white" fill-opacity="0.2"/>
<path d="M288.458 361.782C294.258 361.261 298.371 365.725 296.574 371.471C294.765 377.252 286.033 378.014 283.169 372.775C280.687 368.229 287.463 369.882 289.745 369.112C289.874 367.873 288.266 367.868 287.37 367.923C285.876 368.013 282.081 369.369 282.495 366.599C282.923 363.738 285.759 362.023 288.46 361.782H288.458Z" fill="white" fill-opacity="0.2"/>
<path d="M265.074 368.972C267.102 369.89 270.48 367.873 272.242 369.103C274.971 371.008 271.809 374.131 269.93 375.205C262.164 379.642 254.722 369.35 261.915 363.253C266.436 359.423 270.705 362.056 273.344 366.413C270.927 368.199 267.288 366.824 265.074 368.972Z" fill="white" fill-opacity="0.2"/>
<path d="M276.349 372.811C276.67 372.822 276.728 373.222 276.815 373.471C277.407 375.132 277.004 377.398 278.95 378.302C279.142 378.179 279.131 378.05 279.152 377.852C279.268 376.806 278.391 373.578 280.032 373.331C280.958 373.192 284.106 375.4 284.726 376.214C287.304 379.603 284.4 385.588 280.38 386.308C278.728 386.604 276.36 386.388 274.809 385.73C269.59 383.513 268.809 375.441 274.475 373.307C274.853 373.164 276.012 372.8 276.349 372.811Z" fill="white" fill-opacity="0.2"/>
<path d="M287.043 9.64201C287.572 11.8012 286.72 14.0754 284.12 13.2863C282.67 12.8451 281.566 11.1518 281.023 9.80916C277.453 0.947808 289.975 -3.93772 294.063 4.00571C296.483 8.71313 295 12.2752 290.197 14.1741C288.663 14.7824 288.01 14.9522 287.835 12.9904C287.739 11.9217 288.26 10.0969 287.043 9.64201Z" fill="white" fill-opacity="0.2"/>
<path d="M298.458 11.7821C304.258 11.2614 308.371 15.725 306.574 21.4709C304.765 27.2524 296.033 28.0142 293.169 22.7752C290.687 18.2294 297.463 19.8817 299.745 19.1117C299.874 17.8732 298.266 17.8677 297.37 17.9225C295.876 18.0129 292.081 19.3693 292.495 16.5991C292.923 13.7385 295.759 12.0232 298.46 11.7821H298.458Z" fill="white" fill-opacity="0.2"/>
<path d="M275.074 18.9718C277.102 19.8897 280.48 17.873 282.242 19.1033C284.971 21.0077 281.809 24.1313 279.93 25.2054C272.164 29.6416 264.722 19.3499 271.915 13.2533C276.436 9.42269 280.705 12.0559 283.344 16.4126C280.927 18.1991 277.288 16.8236 275.074 18.9718Z" fill="white" fill-opacity="0.2"/>
<path d="M286.349 22.8108C286.67 22.8217 286.728 23.2218 286.815 23.4711C287.407 25.1316 287.004 27.3976 288.95 28.3019C289.142 28.1786 289.131 28.0498 289.152 27.8525C289.268 26.8058 288.391 23.578 290.032 23.3314C290.958 23.1917 294.106 25.4001 294.726 26.2139C297.304 29.6034 294.4 35.5877 290.38 36.3083C288.728 36.6042 286.36 36.3878 284.809 35.7302C279.59 33.5135 278.809 25.4412 284.475 23.3067C284.853 23.1643 286.012 22.7998 286.349 22.8108Z" fill="white" fill-opacity="0.2"/>
<g clip-path="url(#clip0_63_81)">
<path d="M126.8 66C130.572 68.0778 130.608 74.1873 126.108 75.0984C121.376 76.0574 118.472 74.1394 113.324 77.1122C111.064 78.4189 107.2 83.1698 107.2 85.7791V113.949H121.4C130.296 113.949 140.4 125.909 140.4 134.527V164.696C143.964 164.052 148.044 164.052 151.6 164.696V133.329C151.6 125.601 162.392 113.949 170.2 113.949H184.8V86.5782C184.8 82.4106 180.048 77.2201 176.22 75.9695C172.392 74.7188 169.224 75.7737 165.892 75.0984C161.468 74.2033 161.3 67.9419 165.2 66H176C182.704 67.7222 188.696 71.662 191.82 77.9673C192.32 78.9783 194 83.3456 194 84.1808V113.35L194.6 113.949H229.4C238.704 113.949 247.376 125.825 248.016 134.512C248.724 144.121 247.456 154.594 248 164.296H253.8C254.6 164.296 257.912 165.295 258.8 165.695C262.372 167.313 264.808 171.081 266 174.685V228.628C265.604 229.483 263.404 231.825 262.6 231.825H230.4V250.804C230.4 252.383 228.556 254.313 227.2 255H167.6C166.328 254.489 164.4 252.091 164.4 250.804V231.825H127.2V252.003C127.2 252.706 125.012 254.469 124.4 255H64.4C63.492 254.129 61.6 252.571 61.6 251.204V231.825H29.4C28.64 231.825 26.476 229.795 26 229.027V174.285C28.628 166.086 35.916 163.625 44.004 164.3C44.596 154.374 43.208 143.538 43.988 133.716C44.652 125.325 53.784 113.953 62.604 113.953H97.604V86.9778C97.604 79.0981 104.312 70.1276 111.612 67.4065L116.004 66H126.804H126.8ZM60.4 176.483C60.936 181.562 60 187.495 60.4 192.666C61.988 191.923 63.628 191.579 65.384 191.451C84.356 190.037 105.06 192.554 124.216 191.451L128.8 192.662C129.236 187.252 128.224 180.986 128.8 175.68C129.052 173.354 130.6 171.536 130.824 169.311C129.848 158.21 132.08 145.02 130.76 134.172C130.008 127.986 124.28 123.383 118.22 123.124C101.336 124.286 82.46 121.617 65.812 123.144C58.864 123.783 53.992 128.354 53.212 135.331L53.204 165.295C53.38 166.23 55.684 167.321 56.62 168.276C58.544 170.234 60.12 173.766 60.408 176.479L60.4 176.483ZM231.6 192.666V175.684C231.6 175.312 232.38 172.847 232.604 172.292C233.708 169.542 235.932 167.505 238.408 166.014L238.364 133.365C236.912 127.419 232.236 123.699 226.192 123.148C209.54 121.625 190.672 124.286 173.784 123.128C167.936 123.387 162.024 127.759 161.232 133.764C159.812 144.577 162.24 158.198 161.176 169.315C161.624 171.86 162.94 173.814 163.192 176.491C163.676 181.642 162.844 187.447 163.204 192.666L167.784 191.451C186.94 192.554 207.644 190.037 226.616 191.451C228.372 191.583 230.008 191.923 231.6 192.666ZM35.2 176.483V222.235H50.8V176.483C50.8 174.829 48.436 173.994 47.02 173.866C45.192 173.702 39.488 173.614 37.884 173.97C36.988 174.17 35.38 175.644 35.2 176.483ZM153.6 222.235V176.084C153.6 175.392 151.74 174.046 150.98 173.906C149.324 173.606 143.188 173.67 141.392 173.878C139.596 174.086 138.776 175.041 138.26 176.775C138.316 191.887 138.84 207.187 138 222.235H153.6ZM256.8 222.235V177.282C256.8 175.736 255.048 174.066 253.408 173.878C251.248 173.626 243.776 173.57 242.256 174.745C241.948 174.985 241.2 175.808 241.2 176.088V222.239H256.8V222.235ZM128.8 222.235V206.052C128.8 205.492 127.288 202.999 126.76 202.496C125.58 201.369 123.824 200.785 122.216 200.642C104.536 199.063 84.524 201.856 66.6 200.658C64.676 200.462 60.4 203.51 60.4 205.253V222.235H128.8ZM231.6 222.235V205.652C231.6 205.404 230.744 203.922 230.496 203.558C229.08 201.445 227.06 200.825 224.616 200.642C206.824 199.303 187.368 201.676 169.396 200.658C168.144 200.797 166.356 201.449 165.392 202.252C164.9 202.663 163.196 205.309 163.196 205.652V222.235H231.596H231.6ZM118 231.825H71.2V245.81H118V231.825ZM220.8 231.825H174V245.81H220.8V231.825Z" fill="white" fill-opacity="0.5"/>
<path d="M147.6 66C152.536 68.1537 151.016 75.3941 145.796 75.2262C140.664 75.0584 139.66 68.4055 144 66H147.6Z" fill="white" fill-opacity="0.5"/>
</g>
<defs>
<clipPath id="clip0_63_81">
<rect width="240" height="189" fill="white" transform="translate(26 66)"/>
</clipPath>
</defs>
</svg>
