<svg width="366" height="569" viewBox="0 0 366 569" fill="none" xmlns="http://www.w3.org/2000/svg">
<path fill-rule="evenodd" clip-rule="evenodd" d="M233.175 545C224.195 545 216.656 551.549 210.376 557.968C203.77 564.72 193.949 569 182.984 569C172.019 569 162.198 564.72 155.592 557.968C149.312 551.549 141.773 545 132.793 545L20 545C8.95432 545 2.88096e-06 536.046 3.8466e-06 525L2.09232e-05 329.666C2.17071e-05 320.699 6.43825 313.285 13.4166 307.655C20.5395 301.907 25 293.679 25 284.541C25 275.403 20.5395 267.176 13.4166 261.428C6.43826 255.797 2.80292e-05 248.383 2.88131e-05 239.417L4.79951e-05 20C4.89608e-05 8.95425 8.95436 -3.12139e-05 20 -3.02483e-05L133.686 -2.03096e-05C142.391 -1.95485e-05 149.762 6.16172 155.936 12.2985C162.537 18.8592 172.215 23 183 23C193.785 23 203.463 18.8592 210.064 12.2985C216.238 6.16173 223.609 -1.24482e-05 232.314 -1.16872e-05L346 -1.74846e-06C357.046 -7.82813e-07 366 8.95428 366 20L366 242.387C366 250.565 360.58 257.516 354.617 263.112C348.63 268.729 344.968 276.262 344.968 284.541C344.968 292.821 348.63 300.354 354.617 305.971C360.58 311.566 366 318.518 366 326.695L366 525C366 536.046 357.046 545 346 545L233.175 545Z" fill="white"/>
</svg>
