<svg width="12" height="12" viewBox="0 0 12 12" fill="none" xmlns="http://www.w3.org/2000/svg">
<g clip-path="url(#clip0_25_5731)">
<path d="M6.31913 0L6.88579 0.0633084C9.5435 0.45337 11.6458 2.61198 11.9582 5.28319L11.996 5.67937C11.9878 5.88972 12.0062 6.10619 11.996 6.31552C11.8551 9.16848 9.64049 11.5691 6.81228 11.9449C2.54341 12.5126 -0.913748 8.57012 0.216516 4.40402C0.884261 1.9452 3.12029 0.131722 5.67078 0H6.31913ZM5.71673 0.848536C1.81134 1.04255 -0.456333 5.44044 1.64492 8.75902C3.81356 12.1838 8.94416 11.8652 10.6656 8.19741C12.3309 4.64908 9.60374 0.655548 5.71673 0.848536Z" fill="white" fill-opacity="0.6"/>
<path d="M7.33206 8.06968C7.40966 8.16055 7.25038 8.42502 7.1932 8.50671C6.91548 8.90596 6.47543 9.3338 6.06089 9.5901C5.64636 9.8464 4.75604 10.2252 4.32517 9.90868C4.17201 9.79636 4.07298 9.7065 4.05562 9.50535C4.0158 9.05198 4.21388 8.55776 4.36397 8.13809C4.57838 7.53972 4.80811 6.9434 5.03681 6.35116C5.13483 6.09793 5.26756 5.82836 5.35231 5.57716C5.42276 5.36682 5.47381 4.88894 5.11237 5.00739C4.83159 5.09929 4.3752 5.7385 4.13628 5.95804C4.05256 6.03462 3.9331 6.11631 3.90961 5.94272C3.89634 5.84163 3.90451 5.78343 3.95964 5.70072C4.2149 5.31883 4.74174 4.87975 5.12564 4.62754C5.56162 4.34061 5.89549 4.1997 6.43561 4.23544C7.2177 4.28649 7.22281 5.1483 7.02575 5.72012C6.70209 6.65647 6.29164 7.56627 5.9639 8.5016C5.87711 8.80691 5.81177 9.25007 6.27429 8.98356C6.61837 8.78445 6.82972 8.42502 7.11458 8.15953C7.15236 8.12482 7.28611 8.0176 7.33206 8.0707V8.06968Z" fill="white" fill-opacity="0.6"/>
<path d="M6.6959 1.97375C7.44634 1.889 7.86292 2.80595 7.39529 3.37164C6.8368 4.04761 5.65956 3.55033 5.94851 2.64665C6.04653 2.33828 6.36305 2.01153 6.6959 1.97375Z" fill="white" fill-opacity="0.6"/>
</g>
<defs>
<clipPath id="clip0_25_5731">
<rect width="12" height="12" fill="white"/>
</clipPath>
</defs>
</svg>
