<svg width="271" height="52" viewBox="0 0 271 52" fill="none" xmlns="http://www.w3.org/2000/svg">
<path d="M59.0063 41.8531C56.8992 41.8531 54.9467 41.4738 53.1486 40.7152C51.3506 39.9286 49.7914 38.847 48.471 37.4704C47.1787 36.0657 46.1673 34.4081 45.4368 32.4977C44.7064 30.5873 44.3411 28.4943 44.3411 26.2187C44.3411 23.9431 44.6923 21.8641 45.3947 19.9818C46.1251 18.0714 47.1365 16.4279 48.4288 15.0513C49.7493 13.6466 51.3085 12.5649 53.1065 11.8064C54.9045 11.0479 56.8571 10.6686 58.9641 10.6686C61.324 10.6686 63.4451 11.1462 65.3274 12.1014C67.2097 13.0285 68.7409 14.3489 69.9208 16.0627C71.1289 17.7764 71.8734 19.7711 72.1543 22.0467H67.7716C67.4064 19.6587 66.4372 17.8045 64.8639 16.4841C63.3187 15.1356 61.3662 14.4613 59.0063 14.4613C57.0116 14.4613 55.2417 14.9529 53.6965 15.9362C52.1794 16.8914 50.9994 18.254 50.1566 20.0239C49.3138 21.7658 48.8924 23.8307 48.8924 26.2187C48.8924 28.5786 49.3138 30.6576 50.1566 32.4556C51.0275 34.2255 52.2215 35.6021 53.7386 36.5854C55.2557 37.5687 57.0116 38.0603 59.0063 38.0603C61.3662 38.0603 63.3328 37.4001 64.906 36.0797C66.5074 34.7312 67.4766 32.8629 67.8138 30.4749H72.2386C71.9296 32.7787 71.171 34.7874 69.963 36.5011C68.7549 38.1868 67.2097 39.5072 65.3274 40.4624C63.4732 41.3895 61.3662 41.8531 59.0063 41.8531ZM77.0065 41.4316V11.09H81.4734V41.4316H77.0065ZM87.7064 41.4316V11.09H92.8897L108.988 37.049L107.976 37.2597V11.09H112.275V41.4316H107.091L90.9934 15.4727L92.0048 15.262V41.4316H87.7064ZM118.53 41.4316V11.09H122.997V41.4316H118.53ZM120.722 41.4316V37.7654H139.601V41.4316H120.722ZM120.722 27.5672V23.9009H138.084V27.5672H120.722ZM120.722 14.7563V11.09H139.222V14.7563H120.722ZM156.214 41.4316V36.3747H163.883C166.075 36.3747 167.929 35.9392 169.446 35.0683C170.991 34.1693 172.157 32.9472 172.944 31.402C173.759 29.8569 174.166 28.0869 174.166 26.0923C174.166 24.1257 173.773 22.3979 172.986 20.9089C172.199 19.4199 171.033 18.254 169.488 17.4112C167.971 16.5684 166.103 16.1469 163.883 16.1469H156.34V11.09H163.883C167.283 11.09 170.247 11.7081 172.775 12.9442C175.304 14.1523 177.256 15.8941 178.633 18.1697C180.038 20.4172 180.74 23.0862 180.74 26.1765C180.74 29.2669 180.038 31.9639 178.633 34.2676C177.228 36.5433 175.262 38.3132 172.733 39.5774C170.233 40.8136 167.297 41.4316 163.926 41.4316H156.214ZM152.252 41.4316V11.09H158.742V41.4316H152.252ZM199.018 41.8531C196.771 41.8531 194.692 41.4738 192.781 40.7152C190.899 39.9567 189.256 38.8891 187.851 37.5125C186.474 36.1078 185.393 34.4503 184.606 32.5399C183.847 30.6014 183.468 28.4662 183.468 26.1344C183.468 23.044 184.128 20.347 185.449 18.0433C186.769 15.7115 188.595 13.8994 190.927 12.6071C193.287 11.3148 195.97 10.6686 198.976 10.6686C202.038 10.6686 204.735 11.3148 207.067 12.6071C209.399 13.8994 211.225 15.7115 212.546 18.0433C213.894 20.3751 214.568 23.0862 214.568 26.1765C214.568 28.4803 214.175 30.6014 213.388 32.5399C212.63 34.4503 211.548 36.1078 210.144 37.5125C208.767 38.8891 207.123 39.9567 205.213 40.7152C203.331 41.4738 201.266 41.8531 199.018 41.8531ZM198.976 36.7118C200.746 36.7118 202.305 36.2623 203.654 35.3633C205.002 34.4643 206.056 33.2282 206.814 31.6549C207.601 30.0535 207.994 28.1993 207.994 26.0923C207.994 24.0133 207.615 22.2012 206.857 20.656C206.098 19.1109 205.044 17.9169 203.696 17.0741C202.347 16.2312 200.774 15.8098 198.976 15.8098C197.206 15.8098 195.647 16.2312 194.298 17.0741C192.95 17.9169 191.896 19.1109 191.138 20.656C190.407 22.1731 190.042 23.9852 190.042 26.0923C190.042 28.2274 190.422 30.0957 191.18 31.697C191.939 33.2703 192.992 34.5064 194.341 35.4055C195.689 36.2764 197.234 36.7118 198.976 36.7118ZM217.765 41.4316V11.09H231.334C233.526 11.09 235.436 11.4693 237.065 12.2278C238.695 12.9583 239.959 13.9977 240.858 15.3463C241.757 16.6948 242.207 18.268 242.207 20.0661C242.207 21.836 241.757 23.3952 240.858 24.7437C239.959 26.0642 238.695 27.1036 237.065 27.8622C235.436 28.5926 233.526 28.9579 231.334 28.9579H222.906V24.1959H231.166C232.711 24.1959 233.891 23.8447 234.706 23.1424C235.548 22.4119 235.97 21.4005 235.97 20.1082C235.97 18.7878 235.562 17.7904 234.748 17.1162C233.933 16.4138 232.739 16.0627 231.166 16.0627H224.255V41.4316H217.765ZM234.874 41.4316L222.695 25.6708H229.564L243.64 41.4316H234.874ZM246.082 41.4316V11.09H252.572V41.4316H246.082ZM249.117 41.4316V36.459H268.67V41.4316H249.117ZM249.117 28.3679V23.4795H267.195V28.3679H249.117ZM249.117 16.0627V11.09H268.164V16.0627H249.117ZM259.23 8.0137H253.668L257.84 1.39754H266.184L259.23 8.0137Z" fill="white" fill-opacity="0.88"/>
<path d="M30.5674 24.0955C31.6898 24.1804 32.6952 23.3734 33.5398 24.3753C35.5046 26.7023 34.2147 32.2849 32.7502 34.6899C29.7893 39.5503 22.0953 37.668 18.1198 41.256C17.9041 39.47 18.8176 37.9294 19.9354 36.634C22.5498 33.6031 24.1497 32.4041 25.6967 28.4172C26.2223 27.0645 26.9775 24.8407 26.2774 23.4903C24.9301 20.895 22.9653 25.5055 22.4327 26.5877C19.6302 32.294 17.4358 40.4008 9.69139 40.7035C4.99515 40.8869 0.152011 36.2007 1.07244 31.4389C1.68758 28.2567 5.20862 27.75 7.09996 30.2032C8.3601 31.8378 7.15505 32.5325 6.53072 33.9195C4.86202 37.6244 10.4672 38.7112 12.6087 36.0265C14.2568 33.9608 14.1948 28.5891 14.484 25.9113C14.7732 23.2335 15.2139 16.6192 17.966 15.4202C20.8582 14.1592 20.266 19.5057 20.546 21.0693C20.5735 21.2229 20.4404 21.3925 20.7067 21.3444C21.7327 20.409 21.6799 18.9233 22.1137 17.6899C23.3096 14.2807 25.9928 11.3416 29.7571 11.0229C32.4587 10.7936 33.4916 11.1719 33.3218 14.0331C33.129 17.307 31.8482 21.1014 30.5674 24.0978V24.0955Z" fill="#E18D92" fill-opacity="0.88"/>
</svg>
