<svg width="50" height="45" viewBox="0 0 50 45" fill="none" xmlns="http://www.w3.org/2000/svg">
<path d="M43.419 19.2522C45.0649 19.3766 46.5392 18.1932 47.7779 19.6624C50.6592 23.0748 48.7675 31.2614 46.62 34.7881C42.2779 41.9156 30.9952 39.1554 25.1654 44.417C24.849 41.798 26.1886 39.5387 27.8279 37.6391C31.6617 33.1945 34.0078 31.4362 36.2764 25.5896C37.0472 23.606 38.1546 20.3449 37.128 18.3646C35.1522 14.5588 32.2709 21.3198 31.49 22.9067C27.3802 31.2748 24.1623 43.163 12.8056 43.6068C5.9188 43.8757 -1.18338 37.0037 0.166372 30.0208C1.06845 25.3543 6.23184 24.6113 9.00539 28.2087C10.8533 30.6058 9.08617 31.6245 8.17063 33.6585C5.72358 39.0915 13.9433 40.6851 17.0837 36.7482C19.5005 33.719 19.4096 25.8418 19.8337 21.9149C20.2578 17.9881 20.9041 8.28862 24.9399 6.53027C29.181 4.68116 28.3126 12.5214 28.7232 14.8143C28.7636 15.0396 28.5684 15.2884 28.9588 15.2178C30.4634 13.8461 30.386 11.6675 31.0222 9.85868C32.7758 4.85934 36.7106 0.549222 42.2308 0.0818997C46.1925 -0.254303 47.7072 0.300433 47.4581 4.49625C47.1754 9.29723 45.2972 14.8614 43.419 19.2556V19.2522Z" fill="#E18D92" fill-opacity="0.88"/>
</svg>
